Patient4_TMGait_0pt8_01_right_18_EMG.mot
version=1
nRows=30
nColumns=33
inDegrees=no
endheader
time	1LAddLong	2LGlutMax	3LGlutMed	4LIliopsoas	5LSemiMemb	6LBicFemLong	7LRecFem	8LVastMed	9LVastLat	10LGasMed	11LTibAnt	12lTibPost	13LPeroneusLong	14LSol	15LExtDigLong	16LFlexDigLong	17RAddLong	18RGlutMax	19RGlutMed	20RIliopsoas	21RSemiMemb	22RBicFemLong	23RRecFem	24RVastMed	25RVastLat	26RGasMed	27RTibAnt	28RTibPost	29RPeroneusLong	30RSol	31RExtDigLong	32RFlexDigLong
20.78	0.010834	-0.15488	0.043182	0.012665	-0.032806	-0.12421	0.019836	0.006714	0.39948	0.014648	-0.031281	0.002441	-0.14008	-0.079041	-0.095215	-0.003204	-0.000763	0.004425	-0.28763	-0.056152	0.20081	-0.16495	-0.2269	-0.063934	0.012665	-0.002289	-0.32379	-0.010376	-0.056	-0.098572	-0.007935	0.000305
20.781	-0.003357	-0.19623	0.000153	0.009766	-0.005341	0.0737	-0.018311	0.02182	0.31189	-0.002594	-0.018768	-0.007019	0.20065	-0.10666	-0.024719	0.005951	-0.013733	-0.003662	-0.20218	-0.021515	0.20203	-0.18936	-0.25375	0.012512	0.050049	-0.003052	-0.008392	-0.000153	-0.083923	-0.13931	-0.007935	0.001526
20.782	-0.020599	-0.20157	-0.009308	0.005035	-0.054321	0.14236	-0.050049	0.029297	0.22476	-0.03067	-0.013123	0.00351	0.038757	-0.17822	-0.00061	0.005951	-0.004272	0.048676	-0.039978	0.015564	0.20645	-0.13123	-0.19424	0.024872	0.024719	0.001678	0.2066	-0.004883	-0.045776	-0.10559	-0.00824	-0.003967
20.783	-0.00824	-0.15228	-0.01709	0.000763	-0.030518	-0.11154	-0.13886	0.038147	-0.016632	0.00412	0.012207	0.003967	0.20416	-0.093994	0.020599	-0.001831	0.009613	0.011292	-0.15335	0.035706	0.24353	-0.021667	-0.1622	0.006256	0.027771	0.005035	0.30426	-0.007935	-0.066833	-0.064087	-0.009003	-0.001678
20.784	0.018463	-0.13626	-0.083313	-0.000916	0.033875	-0.30228	-0.2301	0.018005	-0.075989	0.00351	0.015869	0.016632	0.027618	-0.058594	0.11566	0.002594	-0.018616	-0.045929	-0.215	-0.017242	0.31204	0.054169	-0.17822	0.011139	0.018616	0.014496	0.25253	-0.010529	-0.090332	-0.032959	-0.005951	-0.005035
20.785	0.018768	-0.2359	-0.12299	0.003967	-0.029144	-0.27252	-0.16769	0.003815	0.009003	-0.009003	-0.014648	0.009155	0.036621	-0.030212	0.11673	-0.000916	-0.017395	-0.000763	-0.22339	-0.024109	0.30853	0.11917	-0.079498	-0.036621	0.001373	0.020905	0.035706	-0.010376	-0.087433	-0.044403	-0.015106	-0.007629
20.786	0.001984	-0.20111	-0.17716	-0.001831	-0.059204	-0.15381	-0.046387	0.004272	0.14465	0.015717	-0.023804	0.003204	-0.063477	0.02594	0.066223	0.014191	-0.010223	0.015259	-0.22583	-0.035706	0.2858	0.24246	-0.10681	-0.052032	-0.001678	0.012054	-0.27817	-0.009155	-0.15671	-0.063019	-0.005493	-0.017242
20.787	-0.024719	-0.15533	-0.11505	0.006714	-0.073395	-0.12146	-0.017548	0.015717	0.11566	0.015869	-0.04837	0.009003	-0.088348	0.022278	0.05249	0.004883	0.012207	0.037537	-0.19699	-0.061646	0.27329	0.24185	-0.16281	0.000458	0.016937	0.01709	-0.099182	-0.007782	-0.1593	-0.022888	-0.005493	-0.005188
20.788	-0.034332	-0.19592	0.042114	-0.005798	-0.062256	-0.098724	0.053864	0.025787	-0.03418	0.029755	-0.052795	0.006561	-0.055695	0.00351	0.012512	-0.001373	0.03067	0.070496	-0.10544	-0.077515	0.25223	0.18646	-0.096436	-0.027618	0.007782	0.014038	0.052032	-0.001526	-0.049133	-0.022736	-0.014954	-0.004883
20.789	-0.010529	-0.23407	-0.006256	0.005646	-0.015717	-0.16571	-0.003052	0.001526	-0.17975	0.058441	-0.028687	0.007629	-0.13458	0.023956	0.049286	0.001068	0.005493	0.010834	-0.1799	-0.042114	0.22247	0.14297	-0.088043	-0.062408	0.008545	-0.000763	0.26977	-0.003204	-0.067291	0.016327	-0.007324	0.006409
20.79	-0.016022	-0.32257	-0.028839	0.006714	0.062561	0.11505	-0.15305	-0.017242	-0.35248	0.064392	0.066833	0.013123	-0.2507	-0.003967	0.22903	0.015869	0.015564	-0.03006	-0.13168	-0.018921	0.19241	0.10956	-0.095062	-0.081177	0.019379	-0.016937	-0.087128	-0.002747	0.059204	0.067596	-0.005188	-0.003967
20.791	-0.033112	-0.37598	-0.027313	0.004272	0.064087	0.43793	-0.090485	-0.043488	-0.4422	0.062103	0.11826	0.026245	-0.006561	0.006104	0.79666	0.008392	0.007629	0.058136	-0.12711	0.060425	0.18997	0.097961	-0.10239	-0.057526	0.030212	-0.026245	-0.29251	0.012817	0.20981	0.13733	-0.011292	0.003967
20.792	-0.053101	-0.39063	-0.0737	0.011444	0.077667	0.37521	0.044098	-0.069885	-0.39536	0.035553	0.21347	0.027771	0.075226	0.080261	0.21011	0.01236	0.020599	0.068665	-0.099182	0.13031	0.17181	0.037689	-0.10895	-0.069122	0.014343	-0.023956	-0.17975	0.046844	0.24811	0.12405	-0.010986	0.000153
20.793	-0.04425	-0.37323	0.040283	-0.001068	0.036926	0.084839	0.1329	-0.053864	-0.53467	0.018463	0.35187	0.02594	-0.045776	0.12604	-0.33234	0.020447	0.032806	0.092621	-0.066833	0.11597	0.1741	-0.03952	-0.088806	-0.05127	0.023956	-0.017853	-0.039368	0.012512	0.20523	-0.001373	-0.007782	-0.005493
20.794	-0.019684	-0.41077	0.14969	0.002747	-0.030823	-0.038757	0.066376	-0.018311	-0.53528	0.007477	0.2356	0.02655	-0.014343	0.1741	0.13947	0.03006	0.050049	0.10925	-0.041656	0.045319	0.17777	-0.17288	-0.10162	-0.057068	0.030975	-0.007782	0.016327	-0.29282	0.11444	-0.033875	-0.009308	-0.002136
20.795	-0.017242	-0.44144	0.13962	0.02655	-0.031433	-0.22644	0.037079	-0.007629	-0.43396	-0.007172	-0.052795	0.048218	0.19959	0.19791	-0.3479	0.026855	0.055542	0.12146	-0.10666	0.073242	0.14908	-0.21179	-0.1712	-0.05127	0.05249	-0.012512	0.017548	-0.16434	0.067749	0.041504	-0.006866	0.004272
20.796	-0.024872	-0.42831	0.10513	0.01297	0.021667	-0.23483	-0.00885	0.010834	-0.31601	-0.019531	-0.23758	0.043488	0.22064	0.14435	-0.551	0.036774	0.071564	0.073547	-0.16983	0.040131	0.17212	-0.15015	-0.12543	-0.042725	0.061646	-0.009308	-0.015564	0.093231	0.10971	-0.093689	-0.005493	0.004883
20.797	-0.012512	-0.39322	0.049744	0.012817	0.08316	-0.22781	-0.01236	0.006409	-0.17471	-0.026855	-0.19913	0.047455	0.12207	0.13062	-0.39764	0.022736	0.085907	0.045624	-0.10712	0.00885	0.1535	-0.11902	-0.19226	0.009766	0.075836	-0.006714	-0.062256	0.09201	0.15503	-0.062866	-0.005798	0.003662
20.798	-0.014954	-0.35523	-0.003967	0.010834	0.054779	-0.31006	0.022736	0.004883	-0.018768	-0.040436	0.055695	0.052948	0.083923	0.12665	0.22446	0.005646	0.055542	0.036011	-0.090332	-0.015869	0.17105	-0.092773	-0.21866	0.063629	0.075226	-0.007324	-0.048828	0.028992	0.017395	0.046539	-0.007782	0.007477
20.799	-0.022278	-0.37064	-0.02121	-0.003662	-0.003357	-0.30624	-0.042114	0.014038	0.051575	0.00412	0.215	0.050507	0.022736	0.01297	-0.11963	0.00946	0.040283	0.078125	-0.17212	-0.021515	0.18127	-0.13229	-0.25528	0.029144	0.059814	-0.011749	-0.050201	-0.001678	-0.098419	0.19806	-0.003815	0.000916
20.8	-0.007782	-0.35904	-0.012054	0.013428	-0.022278	-0.50934	-0.039063	0.009003	0.090942	-0.021515	0.11215	0.061493	0.080109	-0.003967	0.43762	0.026703	0.005188	0.059662	-0.1651	0.01297	0.20706	0.090942	-0.23422	0.078583	0.08667	0.001984	-0.072784	-0.009918	-0.20126	0.066986	-0.007629	0.006714
20.801	-0.005646	-0.33371	0.00824	0.002136	-0.045624	-0.62546	-0.065002	-0.019989	0.20325	-0.007019	0.052948	0.052032	0.075989	-0.08194	-0.11246	0.027466	-0.011444	0.05188	-0.12009	0.021973	0.25574	0.22659	-0.2272	0.072784	0.08667	0.001984	-0.028839	-0.009003	0.011597	-0.021057	-0.006561	0.003967
20.802	-0.003357	-0.33493	0.015106	-0.001984	-0.027466	-0.513	-0.049744	-0.049438	0.24155	0.033264	0.015869	0.060425	0.032043	-0.24918	-0.19257	0.011444	-0.018158	0.023651	-0.12909	0.027618	0.24933	0.27359	-0.16388	0.011139	0.062408	-0.010376	0.004272	-0.011902	0.20615	0.023041	-0.002747	-0.010376
20.803	0.003052	-0.32654	0.036774	0.004883	0.046082	-0.053406	-0.051727	-0.070038	0.20828	0.043793	-0.19318	0.061188	0.04776	-0.24002	-0.50949	-0.003662	-0.02121	0.026703	-0.18066	0.012665	0.22812	0.19547	-0.17044	0.003204	0.06073	-0.013428	0.008087	-0.014801	0.26611	0.094452	-0.005798	0.004578
20.804	0.020752	-0.3302	-0.010681	0.010071	0.10986	-0.01709	-0.086823	-0.05127	0.13214	0.026703	-0.47318	0.051575	0.074463	-0.13336	-0.12604	0.011444	-0.025024	0.016174	-0.034943	-0.057373	0.17242	0.14236	-0.16769	0.000305	0.058136	-0.002441	0.062103	-0.012054	0.29373	0.067139	-0.008545	-0.001831
20.805	0.042572	-0.33005	-0.06485	0.010986	0.14511	-0.04364	-0.14511	-0.041962	0.055389	0.022888	-0.30853	0.064087	0.093536	-0.059357	-0.21255	-0.009003	-0.015259	-0.075531	-0.004578	-0.081024	0.13336	0.15533	-0.13443	-0.005798	0.026093	0.011902	0.13077	-0.015869	0.30609	-0.003204	-0.006104	-0.000916
20.806	0.03006	-0.32013	-0.11215	-0.009613	0.10559	0.1004	-0.095215	-0.023651	0.026245	0.021667	-0.15823	0.060577	0.097656	-0.094147	-0.12329	-0.034332	0	-0.0383	0.0354	-0.050507	0.097656	0.075684	-0.12497	0.015259	0.028076	0.031891	0.14954	-0.015717	0.30624	-0.063324	-0.00412	-0.003662
20.807	0.025635	-0.28244	-0.010376	-0.000305	0.039978	0.2948	-0.018921	0.000153	0.054474	0.032959	-0.054626	0.05661	0.079498	-0.15808	0.20889	-0.041809	0.015869	-0.07843	-0.097961	0.089722	0.054321	-0.031738	-0.10788	0.036469	0.010681	0.057526	0.1738	0.004578	-0.2095	-0.18921	-0.006409	-0.003052
20.808	0.01297	-0.25665	0.042877	0.00351	-0.020752	0.54733	0.045929	0.015717	0.1236	0.023499	-0.010681	0.054321	0.018921	-0.15427	-0.16296	-0.059509	0.038147	-0.072784	-0.047455	0.13519	0.031128	-0.079956	-0.072021	0.016327	-0.013885	0.066376	0.16312	0.006561	-0.90561	-0.26199	-0.004883	-0.001831
20.809	0.00351	-0.21027	0.12177	-0.003357	-0.066986	0.6279	0.042572	0.01709	0.1326	0.013428	0.007172	0.056	0.018768	-0.052185	-0.18707	-0.085754	0.01297	-0.012665	0.07309	0.065002	0.014343	-0.088654	-0.097961	-0.058594	-0.015106	0.05188	0.080719	-0.054474	-0.93216	-0.56915	-0.004578	0.003357
